<?xml version="1.0" encoding="UTF-8"?>
<!DOCTYPE svg PUBLIC "-//W3C//DTD SVG 1.1//EN" "http://www.w3.org/Graphics/SVG/1.1/DTD/svg11.dtd">
<svg xmlns="http://www.w3.org/2000/svg" version="1.1" width="190px" height="123px" style="shape-rendering:geometricPrecision; text-rendering:geometricPrecision; image-rendering:optimizeQuality; fill-rule:evenodd; clip-rule:evenodd" xmlns:xlink="http://www.w3.org/1999/xlink">
<g><path style="opacity:0.396" fill="#96948f" d="M 32.5,38.5 C 32.6602,36.8008 32.4935,35.1341 32,33.5C 29.138,36.2837 25.9713,36.9504 22.5,35.5C 24.8787,33.9875 27.5453,32.9875 30.5,32.5C 34.685,33.5123 35.3517,35.5123 32.5,38.5 Z"/></g>
<g><path style="opacity:1" fill="#9c958a" d="M 117.5,41.5 C 115.236,40.7814 112.903,40.448 110.5,40.5C 110.38,39.4138 109.713,38.7472 108.5,38.5C 107.02,39.4324 105.687,39.4324 104.5,38.5C 104.369,33.2917 106.702,31.6251 111.5,33.5C 113.622,36.1841 115.622,38.8508 117.5,41.5 Z"/></g>
<g><path style="opacity:1" fill="#c4b7a1" d="M 163.5,35.5 C 160.95,38.852 158.117,39.1854 155,36.5C 154.601,36.7284 154.435,37.0618 154.5,37.5C 153.552,35.0867 154.552,33.42 157.5,32.5C 159.604,33.5195 161.604,34.5195 163.5,35.5 Z"/></g>
<g><path style="opacity:1" fill="#4d4e52" d="M 32.5,38.5 C 33.209,39.404 34.209,39.7373 35.5,39.5C 35.5,40.8333 36.1667,41.5 37.5,41.5C 37.5569,42.609 37.8902,43.609 38.5,44.5C 35.3924,43.6547 32.0591,43.6547 28.5,44.5C 27.8333,44.5 27.1667,44.5 26.5,44.5C 24.6847,41.3257 23.3513,38.3257 22.5,35.5C 25.9713,36.9504 29.138,36.2837 32,33.5C 32.4935,35.1341 32.6602,36.8008 32.5,38.5 Z"/></g>
<g><path style="opacity:1" fill="#c8beaa" d="M 104.5,38.5 C 105.687,39.4324 107.02,39.4324 108.5,38.5C 109.713,38.7472 110.38,39.4138 110.5,40.5C 109.508,40.3284 108.842,40.6618 108.5,41.5C 106.856,41.8102 105.856,42.8102 105.5,44.5C 103.402,45.9143 102.402,45.2476 102.5,42.5C 103.345,41.3285 104.011,39.9952 104.5,38.5 Z"/></g>
<g><path style="opacity:0.759" fill="#7e7c79" d="M 22.5,35.5 C 23.3513,38.3257 24.6847,41.3257 26.5,44.5C 24.7231,44.2137 23.0564,43.5471 21.5,42.5C 19.484,43.1776 17.484,43.8443 15.5,44.5C 14.4489,43.7777 13.7822,42.7777 13.5,41.5C 17.3608,40.7399 20.3608,38.7399 22.5,35.5 Z"/></g>
<g><path style="opacity:1" fill="#bb5245" d="M 37.5,41.5 C 39.3084,41.4914 40.9751,41.9914 42.5,43C 41.944,43.3826 41.6107,43.8826 41.5,44.5C 40.5,44.5 39.5,44.5 38.5,44.5C 37.8902,43.609 37.5569,42.609 37.5,41.5 Z"/></g>
<g><path style="opacity:1" fill="#bcb09c" d="M 82.5,33.5 C 80.1591,33.9919 78.1591,35.1585 76.5,37C 77.3081,37.3076 77.9747,37.8076 78.5,38.5C 73.885,39.3123 70.5517,41.8123 68.5,46C 66.5643,46.813 64.5643,47.313 62.5,47.5C 55.2637,47.2354 48.2637,46.2354 41.5,44.5C 41.6107,43.8826 41.944,43.3826 42.5,43C 40.9751,41.9914 39.3084,41.4914 37.5,41.5C 36.1667,41.5 35.5,40.8333 35.5,39.5C 44.0216,40.2648 52.5216,41.2648 61,42.5C 64.2176,42.0643 67.3842,41.3976 70.5,40.5C 72.845,38.4864 74.845,36.153 76.5,33.5C 78.6365,32.2072 80.6365,32.2072 82.5,33.5 Z"/></g>
<g><path style="opacity:1" fill="#141a1f" d="M 78.5,41.5 C 79.4577,42.9616 80.6244,44.2949 82,45.5C 82.6667,46.5 82.6667,47.5 82,48.5C 80.4905,47.9103 78.9905,47.2436 77.5,46.5C 78.8549,45.3247 78.6883,44.3247 77,43.5C 75.4918,45.8384 73.3252,46.8384 70.5,46.5C 71.587,42.4273 74.2536,40.7606 78.5,41.5 Z"/></g>
<g><path style="opacity:1" fill="#c2b6a2" d="M 91.5,41.5 C 90.5655,42.5676 90.2322,43.901 90.5,45.5C 89.8333,46.1667 89.1667,46.8333 88.5,47.5C 87.0335,50.2583 86.3668,49.925 86.5,46.5C 86.6567,45.1266 86.49,43.7932 86,42.5C 84.8932,43.7119 84.3932,43.3786 84.5,41.5C 86.1561,40.8535 87.8228,40.1869 89.5,39.5C 90.7133,39.7472 91.38,40.4138 91.5,41.5 Z"/></g>
<g><path style="opacity:1" fill="#171b21" d="M 108.5,41.5 C 111.697,41.4054 114.697,42.0721 117.5,43.5C 117.414,44.4959 117.748,45.3292 118.5,46C 117.667,46.1667 116.833,46.3333 116,46.5C 114.2,45.6216 112.367,44.955 110.5,44.5C 110.5,45.5 110.5,46.5 110.5,47.5C 109.178,47.33 108.011,47.6634 107,48.5C 106.865,46.0784 107.365,43.7451 108.5,41.5 Z"/></g>
<g><path style="opacity:0.012" fill="#cfcdcb" d="M 119.5,41.5 C 121.781,41.0773 123.448,41.744 124.5,43.5C 122.597,43.2041 120.93,42.5375 119.5,41.5 Z"/></g>
<g><path style="opacity:1" fill="#bb5245" d="M 154.5,43.5 C 151.947,44.2549 149.28,44.9216 146.5,45.5C 146.196,44.8501 145.863,44.1835 145.5,43.5C 147.686,42.7792 149.853,42.1125 152,41.5C 152.995,42.0659 153.828,42.7326 154.5,43.5 Z"/></g>
<g><path style="opacity:1" fill="#494849" d="M 91.5,41.5 C 91.8333,41.5 92.1667,41.5 92.5,41.5C 92.369,42.2389 92.5357,42.9056 93,43.5C 94.049,41.8934 95.549,41.2267 97.5,41.5C 97.5,42.8333 97.5,44.1667 97.5,45.5C 95.312,46.6227 92.9787,46.6227 90.5,45.5C 90.2322,43.901 90.5655,42.5676 91.5,41.5 Z"/></g>
<g><path style="opacity:1" fill="#bcac95" d="M 154.5,39.5 C 156.346,39.2222 157.68,39.8888 158.5,41.5C 157.68,43.1112 156.346,43.7778 154.5,43.5C 153.828,42.7326 152.995,42.0659 152,41.5C 149.853,42.1125 147.686,42.7792 145.5,43.5C 145.863,44.1835 146.196,44.8501 146.5,45.5C 144.901,45.2322 143.568,45.5655 142.5,46.5C 137.778,46.7314 133.111,47.398 128.5,48.5C 126.181,47.9361 123.847,47.4361 121.5,47C 120.944,46.6174 120.611,46.1174 120.5,45.5C 121.672,44.2947 123.005,44.2947 124.5,45.5C 125.463,45.0302 125.463,44.3635 124.5,43.5C 134.473,42.0357 144.473,40.7024 154.5,39.5 Z"/></g>
<g><path style="opacity:1" fill="#5e5e5f" d="M 13.5,41.5 C 13.7822,42.7777 14.4489,43.7777 15.5,44.5C 15.2671,46.0618 14.6005,47.3951 13.5,48.5C 12.325,48.719 11.325,48.3857 10.5,47.5C 10.9202,45.674 10.9202,43.674 10.5,41.5C 11.5,41.5 12.5,41.5 13.5,41.5 Z"/></g>
<g><path style="opacity:1" fill="#63656c" d="M 38.5,44.5 C 39.5,44.5 40.5,44.5 41.5,44.5C 48.2637,46.2354 55.2637,47.2354 62.5,47.5C 62.5,48.5 62.5,49.5 62.5,50.5C 64.099,50.2322 65.4324,50.5655 66.5,51.5C 53.5712,49.9124 40.9045,47.579 28.5,44.5C 32.0591,43.6547 35.3924,43.6547 38.5,44.5 Z"/></g>
<g><path style="opacity:1" fill="#787572" d="M 108.5,41.5 C 108.842,40.6618 109.508,40.3284 110.5,40.5C 112.903,40.448 115.236,40.7814 117.5,41.5C 118.167,41.5 118.833,41.5 119.5,41.5C 120.93,42.5375 122.597,43.2041 124.5,43.5C 125.463,44.3635 125.463,45.0302 124.5,45.5C 123.005,44.2947 121.672,44.2947 120.5,45.5C 119.778,44.4489 118.778,43.7822 117.5,43.5C 114.697,42.0721 111.697,41.4054 108.5,41.5 Z"/></g>
<g><path style="opacity:0.388" fill="#cbc2b0" d="M 166.5,37.5 C 168.786,40.8168 171.786,42.1501 175.5,41.5C 175.296,43.6854 174.63,45.6854 173.5,47.5C 171.556,45.2095 169.056,43.5428 166,42.5C 165.617,43.056 165.117,43.3893 164.5,43.5C 164.297,41.9557 163.63,40.6223 162.5,39.5C 163.391,38.4104 164.391,38.4104 165.5,39.5C 166.298,39.0431 166.631,38.3764 166.5,37.5 Z"/></g>
<g><path style="opacity:1" fill="#737275" d="M 175.5,41.5 C 176.5,41.5 177.5,41.5 178.5,41.5C 178.5,42.8333 178.5,44.1667 178.5,45.5C 177.929,46.9733 177.929,48.64 178.5,50.5C 177.85,50.8039 177.183,51.1373 176.5,51.5C 175.479,50.0986 174.479,48.7653 173.5,47.5C 174.63,45.6854 175.296,43.6854 175.5,41.5 Z"/></g>
<g><path style="opacity:1" fill="#565658" d="M 82.5,33.5 C 84.0719,35.9346 84.7385,38.6012 84.5,41.5C 84.3932,43.3786 84.8932,43.7119 86,42.5C 86.49,43.7932 86.6567,45.1266 86.5,46.5C 86.1667,46.5 85.8333,46.5 85.5,46.5C 84.5352,42.8925 82.2019,41.2258 78.5,41.5C 74.2536,40.7606 71.587,42.4273 70.5,46.5C 70.5,46.8333 70.5,47.1667 70.5,47.5C 70.8925,49.2838 71.5592,50.9505 72.5,52.5C 71.8333,52.5 71.1667,52.5 70.5,52.5C 68.901,52.7678 67.5676,52.4345 66.5,51.5C 65.4324,50.5655 64.099,50.2322 62.5,50.5C 62.5,49.5 62.5,48.5 62.5,47.5C 64.5643,47.313 66.5643,46.813 68.5,46C 70.5517,41.8123 73.885,39.3123 78.5,38.5C 77.9747,37.8076 77.3081,37.3076 76.5,37C 78.1591,35.1585 80.1591,33.9919 82.5,33.5 Z"/></g>
<g><path style="opacity:1" fill="#c1b6a3" d="M 101.5,41.5 C 100.837,43.0419 100.17,44.7086 99.5,46.5C 98.8165,46.1373 98.1499,45.8039 97.5,45.5C 97.5,44.1667 97.5,42.8333 97.5,41.5C 95.549,41.2267 94.049,41.8934 93,43.5C 92.5357,42.9056 92.369,42.2389 92.5,41.5C 94.4872,40.6568 96.6539,39.9902 99,39.5C 100.301,39.6387 101.134,40.3054 101.5,41.5 Z"/></g>
<g><path style="opacity:1" fill="#3a3a3c" d="M 108.5,41.5 C 107.365,43.7451 106.865,46.0784 107,48.5C 108.011,47.6634 109.178,47.33 110.5,47.5C 110.5,46.5 110.5,45.5 110.5,44.5C 112.367,44.955 114.2,45.6216 116,46.5C 116.833,46.3333 117.667,46.1667 118.5,46C 117.748,45.3292 117.414,44.4959 117.5,43.5C 118.778,43.7822 119.778,44.4489 120.5,45.5C 120.611,46.1174 120.944,46.6174 121.5,47C 123.847,47.4361 126.181,47.9361 128.5,48.5C 133.111,47.398 137.778,46.7314 142.5,46.5C 139.226,47.6322 135.559,48.9656 131.5,50.5C 131.167,50.5 130.833,50.5 130.5,50.5C 125.833,50.8333 121.167,51.1667 116.5,51.5C 117.626,50.1417 117.626,48.8084 116.5,47.5C 113.44,48.7064 110.44,49.7064 107.5,50.5C 109.91,53.6334 112.91,54.3001 116.5,52.5C 116.5,52.8333 116.5,53.1667 116.5,53.5C 115.508,53.3284 114.842,53.6618 114.5,54.5C 113.325,54.281 112.325,54.6143 111.5,55.5C 114.326,56.5796 117.159,57.5796 120,58.5C 123.398,57.966 126.898,57.966 130.5,58.5C 132.934,60.8744 135.934,62.2078 139.5,62.5C 138.261,64.7967 136.428,65.13 134,63.5C 132.278,63.6107 132.112,64.1107 133.5,65C 130.964,65.1862 128.631,65.6862 126.5,66.5C 125.5,66.5 124.5,66.5 123.5,66.5C 121.833,66.5 120.167,66.5 118.5,66.5C 118.5,68.1667 118.5,69.8333 118.5,71.5C 118.5,71.8333 118.5,72.1667 118.5,72.5C 117.833,72.1667 117.167,71.8333 116.5,71.5C 117.833,70.5 117.833,69.5 116.5,68.5C 114.738,68.3573 113.071,68.6906 111.5,69.5C 107.219,66.2714 105.552,66.938 106.5,71.5C 105.778,71.0825 105.278,70.4158 105,69.5C 103.731,70.9047 103.231,72.5714 103.5,74.5C 102.167,73.1667 100.833,73.1667 99.5,74.5C 99.5,73.8333 99.1667,73.5 98.5,73.5C 98.5,72.1667 98.5,70.8333 98.5,69.5C 99.29,68.3915 99.79,67.0581 100,65.5C 100.333,66.5 100.667,67.5 101,68.5C 103.09,64.4006 104.256,60.0672 104.5,55.5C 103.178,55.33 102.011,55.6634 101,56.5C 100.833,55.1667 100.667,53.8333 100.5,52.5C 100.585,50.6672 101.252,49.3339 102.5,48.5C 103.189,49.7736 104.023,49.7736 105,48.5C 105.49,47.2068 105.657,45.8734 105.5,44.5C 105.856,42.8102 106.856,41.8102 108.5,41.5 Z"/></g>
<g><path style="opacity:0.622" fill="#929391" d="M 13.5,41.5 C 12.5,41.5 11.5,41.5 10.5,41.5C 10.9202,43.674 10.9202,45.674 10.5,47.5C 11.325,48.3857 12.325,48.719 13.5,48.5C 13.2172,49.2891 12.7172,49.9558 12,50.5C 10.2865,49.0237 8.45318,47.6904 6.5,46.5C 8.97834,45.2776 9.97834,43.2776 9.5,40.5C 11.099,40.2322 12.4324,40.5655 13.5,41.5 Z"/></g>
<g><path style="opacity:1" fill="#7c7670" d="M 101.5,41.5 C 102.167,41.5 102.5,41.8333 102.5,42.5C 102.402,45.2476 103.402,45.9143 105.5,44.5C 105.657,45.8734 105.49,47.2068 105,48.5C 104.023,49.7736 103.189,49.7736 102.5,48.5C 101.791,47.596 100.791,47.2627 99.5,47.5C 95.8333,47.5 92.1667,47.5 88.5,47.5C 89.1667,46.8333 89.8333,46.1667 90.5,45.5C 92.9787,46.6227 95.312,46.6227 97.5,45.5C 98.1499,45.8039 98.8165,46.1373 99.5,46.5C 100.17,44.7086 100.837,43.0419 101.5,41.5 Z"/></g>
<g><path style="opacity:0.873" fill="#b6b4b0" d="M 178.5,45.5 C 179.995,45.4148 180.995,46.0815 181.5,47.5C 180.452,48.548 179.452,49.548 178.5,50.5C 177.929,48.64 177.929,46.9733 178.5,45.5 Z"/></g>
<g><path style="opacity:1" fill="#181d22" d="M 70.5,47.5 C 74.0846,49.268 77.7513,50.1013 81.5,50C 80.2695,51.4048 78.9361,52.5714 77.5,53.5C 75.7085,53.634 74.0418,53.3007 72.5,52.5C 71.5592,50.9505 70.8925,49.2838 70.5,47.5 Z"/></g>
<g><path style="opacity:1" fill="#3c3c3f" d="M 88.5,47.5 C 92.1667,47.5 95.8333,47.5 99.5,47.5C 99.3259,49.861 98.9926,52.1944 98.5,54.5C 96.0521,55.4731 93.3854,55.8064 90.5,55.5C 89.9573,52.7816 89.2906,50.115 88.5,47.5 Z"/></g>
<g><path style="opacity:1" fill="#151a20" d="M 116.5,51.5 C 116.5,51.8333 116.5,52.1667 116.5,52.5C 112.91,54.3001 109.91,53.6334 107.5,50.5C 110.44,49.7064 113.44,48.7064 116.5,47.5C 117.626,48.8084 117.626,50.1417 116.5,51.5 Z"/></g>
<g><path style="opacity:0.929" fill="#676769" d="M 163.5,35.5 C 165.027,35.427 166.027,36.0937 166.5,37.5C 166.631,38.3764 166.298,39.0431 165.5,39.5C 164.391,38.4104 163.391,38.4104 162.5,39.5C 163.63,40.6223 164.297,41.9557 164.5,43.5C 163.319,45.0672 161.653,45.9005 159.5,46C 150.101,47.1845 140.767,48.6845 131.5,50.5C 135.559,48.9656 139.226,47.6322 142.5,46.5C 143.568,45.5655 144.901,45.2322 146.5,45.5C 149.28,44.9216 151.947,44.2549 154.5,43.5C 156.346,43.7778 157.68,43.1112 158.5,41.5C 157.68,39.8888 156.346,39.2222 154.5,39.5C 154.5,38.8333 154.5,38.1667 154.5,37.5C 154.435,37.0618 154.601,36.7284 155,36.5C 158.117,39.1854 160.95,38.852 163.5,35.5 Z"/></g>
<g><path style="opacity:1" fill="#978e82" d="M 85.5,46.5 C 85.8333,46.5 86.1667,46.5 86.5,46.5C 86.3668,49.925 87.0335,50.2583 88.5,47.5C 89.2906,50.115 89.9573,52.7816 90.5,55.5C 88.4021,56.4845 86.4021,56.1511 84.5,54.5C 85.0916,51.8728 85.4249,49.2062 85.5,46.5 Z"/></g>
<g><path style="opacity:0.863" fill="#7c7e7e" d="M 130.5,50.5 C 126.006,51.7339 121.339,52.7339 116.5,53.5C 116.5,53.1667 116.5,52.8333 116.5,52.5C 116.5,52.1667 116.5,51.8333 116.5,51.5C 121.167,51.1667 125.833,50.8333 130.5,50.5 Z"/></g>
<g><path style="opacity:0.918" fill="#999a99" d="M 70.5,52.5 C 71.1667,52.5 71.8333,52.5 72.5,52.5C 74.0418,53.3007 75.7085,53.634 77.5,53.5C 77.1788,55.0481 76.1788,55.7148 74.5,55.5C 74.1583,54.6618 73.4916,54.3284 72.5,54.5C 71.8333,53.8333 71.1667,53.1667 70.5,52.5 Z"/></g>
<g><path style="opacity:1" fill="#c39a66" d="M 71.5,57.5 C 69.4214,57.9707 67.4214,58.6373 65.5,59.5C 64.8333,59.5 64.1667,59.5 63.5,59.5C 65.495,57.3605 67.995,56.0271 71,55.5C 71.4643,56.0944 71.631,56.7611 71.5,57.5 Z"/></g>
<g><path style="opacity:1" fill="#bb5245" d="M 83.5,56.5 C 86.2471,61.7752 88.2471,67.4419 89.5,73.5C 89.5472,75.0004 88.8805,76.0004 87.5,76.5C 86.1616,72.7376 84.8283,69.0709 83.5,65.5C 82.4589,62.4578 82.4589,59.4578 83.5,56.5 Z"/></g>
<g><path style="opacity:1" fill="#c3b59c" d="M 84.5,54.5 C 86.4021,56.1511 88.4021,56.4845 90.5,55.5C 93.3854,55.8064 96.0521,55.4731 98.5,54.5C 99.4435,57.6678 99.4435,61.0012 98.5,64.5C 97.5655,65.5676 97.2322,66.901 97.5,68.5C 95.8008,68.3398 94.1341,68.5065 92.5,69C 93.7111,70.1131 93.7111,71.2798 92.5,72.5C 94.0755,73.0316 96.0755,73.3649 98.5,73.5C 99.1667,73.5 99.5,73.8333 99.5,74.5C 99.5,76.5 99.5,78.5 99.5,80.5C 98.6043,79.4937 97.9377,79.4937 97.5,80.5C 92.7955,80.367 92.7955,79.0337 97.5,76.5C 95.9547,75.5481 94.288,75.2148 92.5,75.5C 92.5,77.5 92.5,79.5 92.5,81.5C 90.4632,83.2024 88.7966,85.2024 87.5,87.5C 85.8496,83.1066 84.6829,78.44 84,73.5C 83.6174,72.944 83.1174,72.6107 82.5,72.5C 83.1098,71.609 83.4431,70.609 83.5,69.5C 83.5,68.1667 83.5,66.8333 83.5,65.5C 84.8283,69.0709 86.1616,72.7376 87.5,76.5C 88.8805,76.0004 89.5472,75.0004 89.5,73.5C 88.2471,67.4419 86.2471,61.7752 83.5,56.5C 83.3284,55.5084 83.6618,54.8417 84.5,54.5 Z"/></g>
<g><path style="opacity:1" fill="#53555b" d="M 99.5,47.5 C 100.791,47.2627 101.791,47.596 102.5,48.5C 101.252,49.3339 100.585,50.6672 100.5,52.5C 100.667,53.8333 100.833,55.1667 101,56.5C 102.011,55.6634 103.178,55.33 104.5,55.5C 104.256,60.0672 103.09,64.4006 101,68.5C 100.667,67.5 100.333,66.5 100,65.5C 99.79,67.0581 99.29,68.3915 98.5,69.5C 98.5,67.8333 98.5,66.1667 98.5,64.5C 99.4435,61.0012 99.4435,57.6678 98.5,54.5C 98.9926,52.1944 99.3259,49.861 99.5,47.5 Z"/></g>
<g><path style="opacity:1" fill="#9e948e" d="M 116.5,53.5 C 116.611,54.1174 116.944,54.6174 117.5,55C 122.031,55.9067 126.364,57.0734 130.5,58.5C 126.898,57.966 123.398,57.966 120,58.5C 117.159,57.5796 114.326,56.5796 111.5,55.5C 112.325,54.6143 113.325,54.281 114.5,54.5C 114.842,53.6618 115.508,53.3284 116.5,53.5 Z"/></g>
<g><path style="opacity:1" fill="#555658" d="M 63.5,59.5 C 64.1667,59.5 64.8333,59.5 65.5,59.5C 68.7967,59.89 71.7967,60.89 74.5,62.5C 72.457,63.5794 71.1237,65.246 70.5,67.5C 70.5,67.8333 70.5,68.1667 70.5,68.5C 70.1667,68.5 69.8333,68.5 69.5,68.5C 69.1788,66.9519 68.1788,66.2852 66.5,66.5C 64.4086,66.6816 62.4086,66.3482 60.5,65.5C 52.2298,67.2053 43.8965,68.5387 35.5,69.5C 35.6495,70.552 35.4828,71.552 35,72.5C 33.2866,73.8782 31.9533,75.5448 31,77.5C 29.5557,79.1554 27.7224,79.822 25.5,79.5C 26.0283,78.1526 26.195,76.8193 26,75.5C 25.2828,76.0442 24.7828,76.7109 24.5,77.5C 24.1667,77.5 23.8333,77.5 23.5,77.5C 23.4003,74.8915 24.0669,72.5582 25.5,70.5C 25.7911,69.3509 26.6244,68.6842 28,68.5C 33.7975,67.2282 39.6308,66.2282 45.5,65.5C 48.4211,64.5188 51.4211,63.6854 54.5,63C 53.944,62.6174 53.6107,62.1174 53.5,61.5C 55.9113,60.0071 58.5779,59.0071 61.5,58.5C 62.1924,59.0253 62.6924,59.6919 63,60.5C 63.3988,60.2716 63.5654,59.9382 63.5,59.5 Z"/></g>
<g><path style="opacity:1" fill="#c3a06d" d="M 53.5,61.5 C 53.6107,62.1174 53.944,62.6174 54.5,63C 51.4211,63.6854 48.4211,64.5188 45.5,65.5C 45.5,64.8333 45.1667,64.5 44.5,64.5C 45.1667,63.8333 45.8333,63.1667 46.5,62.5C 47.1174,62.6107 47.6174,62.944 48,63.5C 49.5843,62.1387 51.4176,61.472 53.5,61.5 Z"/></g>
<g><path style="opacity:1" fill="#414144" d="M 78.5,41.5 C 82.2019,41.2258 84.5352,42.8925 85.5,46.5C 85.4249,49.2062 85.0916,51.8728 84.5,54.5C 83.6618,54.8417 83.3284,55.5084 83.5,56.5C 82.4589,59.4578 82.4589,62.4578 83.5,65.5C 83.5,66.8333 83.5,68.1667 83.5,69.5C 83.1667,69.5 82.8333,69.5 82.5,69.5C 82.38,68.4138 81.7133,67.7472 80.5,67.5C 78.9446,67.722 77.6113,68.3887 76.5,69.5C 74.5914,68.6518 72.5914,68.3184 70.5,68.5C 70.5,68.1667 70.5,67.8333 70.5,67.5C 74.0107,65.5713 77.6773,64.9046 81.5,65.5C 79.7962,63.1507 77.4629,62.1507 74.5,62.5C 71.7967,60.89 68.7967,59.89 65.5,59.5C 67.4214,58.6373 69.4214,57.9707 71.5,57.5C 72.7095,57.0679 73.7095,56.4013 74.5,55.5C 76.1788,55.7148 77.1788,55.0481 77.5,53.5C 78.9361,52.5714 80.2695,51.4048 81.5,50C 77.7513,50.1013 74.0846,49.268 70.5,47.5C 70.5,47.1667 70.5,46.8333 70.5,46.5C 73.3252,46.8384 75.4918,45.8384 77,43.5C 78.6883,44.3247 78.8549,45.3247 77.5,46.5C 78.9905,47.2436 80.4905,47.9103 82,48.5C 82.6667,47.5 82.6667,46.5 82,45.5C 80.6244,44.2949 79.4577,42.9616 78.5,41.5 Z"/></g>
<g><path style="opacity:1" fill="#d0c6b2" d="M 72.5,54.5 C 72.8417,55.3382 73.5084,55.6716 74.5,55.5C 73.7095,56.4013 72.7095,57.0679 71.5,57.5C 71.631,56.7611 71.4643,56.0944 71,55.5C 67.995,56.0271 65.495,57.3605 63.5,59.5C 63.5654,59.9382 63.3988,60.2716 63,60.5C 62.6924,59.6919 62.1924,59.0253 61.5,58.5C 58.5779,59.0071 55.9113,60.0071 53.5,61.5C 51.4176,61.472 49.5843,62.1387 48,63.5C 47.6174,62.944 47.1174,62.6107 46.5,62.5C 44.2495,62.1814 42.2495,62.6814 40.5,64C 41.7932,64.49 43.1266,64.6567 44.5,64.5C 45.1667,64.5 45.5,64.8333 45.5,65.5C 39.6308,66.2282 33.7975,67.2282 28,68.5C 26.6244,68.6842 25.7911,69.3509 25.5,70.5C 24.4265,69.7494 24.2599,68.7494 25,67.5C 26.4095,66.2125 27.9095,65.0458 29.5,64C 43.8668,60.8937 58.2002,57.727 72.5,54.5 Z"/></g>
<g><path style="opacity:1" fill="#555454" d="M 46.5,62.5 C 45.8333,63.1667 45.1667,63.8333 44.5,64.5C 43.1266,64.6567 41.7932,64.49 40.5,64C 42.2495,62.6814 44.2495,62.1814 46.5,62.5 Z"/></g>
<g><path style="opacity:1" fill="#151a20" d="M 74.5,62.5 C 77.4629,62.1507 79.7962,63.1507 81.5,65.5C 77.6773,64.9046 74.0107,65.5713 70.5,67.5C 71.1237,65.246 72.457,63.5794 74.5,62.5 Z"/></g>
<g><path style="opacity:1" fill="#141a1f" d="M 116.5,68.5 C 115.077,67.5515 113.577,66.5515 112,65.5C 105.105,66.8389 104.938,65.8389 111.5,62.5C 115.696,62.9824 117.363,64.9824 116.5,68.5 Z"/></g>
<g><path style="opacity:1" fill="#545558" d="M 139.5,62.5 C 141.199,62.3398 142.866,62.5065 144.5,63C 150.578,65.563 156.578,68.063 162.5,70.5C 161.342,71.9498 161.842,72.9498 164,73.5C 164.315,75.5856 164.815,77.5856 165.5,79.5C 163.741,79.9539 161.741,79.9539 159.5,79.5C 157.077,78.0499 155.077,76.0499 153.5,73.5C 153.771,71.6203 153.104,70.287 151.5,69.5C 143.183,68.4072 134.85,67.4072 126.5,66.5C 128.631,65.6862 130.964,65.1862 133.5,65C 132.112,64.1107 132.278,63.6107 134,63.5C 136.428,65.13 138.261,64.7967 139.5,62.5 Z"/></g>
<g><path style="opacity:1" fill="#c1b5a2" d="M 130.5,58.5 C 139.16,60.2655 147.827,62.0989 156.5,64C 159.102,64.8834 161.269,66.3834 163,68.5C 163.692,69.4368 163.525,70.1034 162.5,70.5C 156.578,68.063 150.578,65.563 144.5,63C 142.866,62.5065 141.199,62.3398 139.5,62.5C 135.934,62.2078 132.934,60.8744 130.5,58.5 Z"/></g>
<g><path style="opacity:1" fill="#c39f68" d="M 98.5,64.5 C 98.5,66.1667 98.5,67.8333 98.5,69.5C 98.5,70.8333 98.5,72.1667 98.5,73.5C 96.0755,73.3649 94.0755,73.0316 92.5,72.5C 93.7111,71.2798 93.7111,70.1131 92.5,69C 94.1341,68.5065 95.8008,68.3398 97.5,68.5C 97.2322,66.901 97.5655,65.5676 98.5,64.5 Z"/></g>
<g><path style="opacity:0.094" fill="#8f9091" d="M 123.5,66.5 C 122.432,67.4345 121.099,67.7678 119.5,67.5C 119.768,69.099 119.434,70.4324 118.5,71.5C 118.5,69.8333 118.5,68.1667 118.5,66.5C 120.167,66.5 121.833,66.5 123.5,66.5 Z"/></g>
<g><path style="opacity:0.031" fill="#b0b0b1" d="M 66.5,66.5 C 68.1788,66.2852 69.1788,66.9519 69.5,68.5C 69.5,69.5 69.5,70.5 69.5,71.5C 68.7671,69.7056 67.7671,68.0389 66.5,66.5 Z"/></g>
<g><path style="opacity:1" fill="#141a1f" d="M 82.5,69.5 C 80.562,73.1692 77.562,74.3359 73.5,73C 71.8588,71.871 70.8588,70.371 70.5,68.5C 72.5914,68.3184 74.5914,68.6518 76.5,69.5C 77.6113,68.3887 78.9446,67.722 80.5,67.5C 81.7133,67.7472 82.38,68.4138 82.5,69.5 Z"/></g>
<g><path style="opacity:1" fill="#151a20" d="M 116.5,68.5 C 117.833,69.5 117.833,70.5 116.5,71.5C 113.125,74.082 109.792,74.082 106.5,71.5C 105.552,66.938 107.219,66.2714 111.5,69.5C 113.071,68.6906 114.738,68.3573 116.5,68.5 Z"/></g>
<g><path style="opacity:0.702" fill="#abacaa" d="M 151.5,69.5 C 153.104,70.287 153.771,71.6203 153.5,73.5C 152.326,72.4863 151.66,71.153 151.5,69.5 Z"/></g>
<g><path style="opacity:0.953" fill="#6d6f71" d="M 69.5,68.5 C 69.8333,68.5 70.1667,68.5 70.5,68.5C 70.8588,70.371 71.8588,71.871 73.5,73C 77.562,74.3359 80.562,73.1692 82.5,69.5C 82.8333,69.5 83.1667,69.5 83.5,69.5C 83.4431,70.609 83.1098,71.609 82.5,72.5C 79.335,75.803 75.6683,76.303 71.5,74C 70.6195,73.2917 69.9528,72.4584 69.5,71.5C 69.5,70.5 69.5,69.5 69.5,68.5 Z"/></g>
<g><path style="opacity:1" fill="#54575f" d="M 103.5,74.5 C 103.5,78.1667 103.5,81.8333 103.5,85.5C 103.617,87.4835 102.95,89.1502 101.5,90.5C 97.8927,91.4892 94.226,91.8226 90.5,91.5C 90.3691,90.6236 90.7025,89.9569 91.5,89.5C 94.1939,88.2465 96.8606,87.2465 99.5,86.5C 99.5,84.5 99.5,82.5 99.5,80.5C 99.5,78.5 99.5,76.5 99.5,74.5C 100.833,73.1667 102.167,73.1667 103.5,74.5 Z"/></g>
<g><path style="opacity:0.918" fill="#6b6c6f" d="M 106.5,71.5 C 109.792,74.082 113.125,74.082 116.5,71.5C 117.167,71.8333 117.833,72.1667 118.5,72.5C 114.708,76.0603 110.541,76.3937 106,73.5C 105.056,77.6092 104.222,81.6092 103.5,85.5C 103.5,81.8333 103.5,78.1667 103.5,74.5C 103.231,72.5714 103.731,70.9047 105,69.5C 105.278,70.4158 105.778,71.0825 106.5,71.5 Z"/></g>
<g><path style="opacity:1" fill="#76726e" d="M 97.5,80.5 C 96.0813,81.4511 94.4147,81.7845 92.5,81.5C 92.5,79.5 92.5,77.5 92.5,75.5C 94.288,75.2148 95.9547,75.5481 97.5,76.5C 92.7955,79.0337 92.7955,80.367 97.5,80.5 Z"/></g>
<g><path style="opacity:1" fill="#a59b8c" d="M 99.5,80.5 C 99.5,82.5 99.5,84.5 99.5,86.5C 97.9705,85.9332 96.4705,85.2666 95,84.5C 94.6758,86.5689 93.8425,86.9023 92.5,85.5C 91.3147,86.853 89.9814,88.0197 88.5,89C 89.2524,89.6708 89.5858,90.5041 89.5,91.5C 87.8958,90.713 87.2291,89.3797 87.5,87.5C 88.7966,85.2024 90.4632,83.2024 92.5,81.5C 94.4147,81.7845 96.0813,81.4511 97.5,80.5C 97.9377,79.4937 98.6043,79.4937 99.5,80.5 Z"/></g>
<g><path style="opacity:0.998" fill="#93908a" d="M 159.5,79.5 C 161.741,79.9539 163.741,79.9539 165.5,79.5C 166.5,79.8333 167.167,80.5 167.5,81.5C 166.5,81.8333 165.833,82.5 165.5,83.5C 163.728,81.7104 161.728,80.3771 159.5,79.5 Z"/></g>
<g><path style="opacity:0.859" fill="#d2ccbf" d="M 167.5,81.5 C 169.246,83.2516 171.246,84.5849 173.5,85.5C 173.5,85.8333 173.5,86.1667 173.5,86.5C 171.738,87.2623 170.738,88.5956 170.5,90.5C 169.283,87.9333 167.616,85.6 165.5,83.5C 165.833,82.5 166.5,81.8333 167.5,81.5 Z"/></g>
<g><path style="opacity:0.576" fill="#878681" d="M 25.5,79.5 C 22.4103,82.9134 19.7436,86.58 17.5,90.5C 17.5,89.1667 17.5,87.8333 17.5,86.5C 20.2154,83.7861 22.5488,80.7861 24.5,77.5C 24.7828,76.7109 25.2828,76.0442 26,75.5C 26.195,76.8193 26.0283,78.1526 25.5,79.5 Z"/></g>
<g><path style="opacity:1" fill="#7b7670" d="M 99.5,86.5 C 96.8606,87.2465 94.1939,88.2465 91.5,89.5C 90.7025,89.9569 90.3691,90.6236 90.5,91.5C 90.1667,91.5 89.8333,91.5 89.5,91.5C 89.5858,90.5041 89.2524,89.6708 88.5,89C 89.9814,88.0197 91.3147,86.853 92.5,85.5C 93.8425,86.9023 94.6758,86.5689 95,84.5C 96.4705,85.2666 97.9705,85.9332 99.5,86.5 Z"/></g>
<g><path style="opacity:1" fill="#595b63" d="M 173.5,86.5 C 174.097,86.7352 174.43,87.2352 174.5,88C 174,89.5 173.5,91 173,92.5C 172.292,91.6195 171.458,90.9528 170.5,90.5C 170.738,88.5956 171.738,87.2623 173.5,86.5 Z"/></g>
<g><path style="opacity:1" fill="#525154" d="M 17.5,86.5 C 17.5,87.8333 17.5,89.1667 17.5,90.5C 16.7784,90.9175 16.2784,91.5842 16,92.5C 14.4412,90.7834 13.6079,88.7834 13.5,86.5C 14.8333,86.5 16.1667,86.5 17.5,86.5 Z"/></g>
<g><path style="opacity:0.843" fill="#adaba5" d="M 173.5,86.5 C 173.5,86.1667 173.5,85.8333 173.5,85.5C 176.487,85.4223 177.153,86.589 175.5,89C 176.167,90.3333 176.833,91.6667 177.5,93C 177.167,93.5 176.833,94 176.5,94.5C 174.979,94.1203 173.313,93.9536 171.5,94C 170.663,92.9887 170.33,91.8221 170.5,90.5C 171.458,90.9528 172.292,91.6195 173,92.5C 173.5,91 174,89.5 174.5,88C 174.43,87.2352 174.097,86.7352 173.5,86.5 Z"/></g>
<g><path style="opacity:0.643" fill="#b1aea7" d="M 23.5,77.5 C 23.8333,77.5 24.1667,77.5 24.5,77.5C 22.5488,80.7861 20.2154,83.7861 17.5,86.5C 16.1667,86.5 14.8333,86.5 13.5,86.5C 13.6079,88.7834 14.4412,90.7834 16,92.5C 16.2784,91.5842 16.7784,90.9175 17.5,90.5C 17.67,91.8221 17.3366,92.9887 16.5,94C 14.6874,93.9536 13.0207,94.1203 11.5,94.5C 11.9228,91.9561 11.9228,89.2895 11.5,86.5C 13.0777,85.7022 14.7444,85.2022 16.5,85C 18.9657,82.5214 21.299,80.0214 23.5,77.5 Z"/></g>
</svg>
