<svg version="1.2" xmlns="http://www.w3.org/2000/svg" viewBox="0 0 1500 1500" width="1500" height="1500">
	<title>star-wars-4-svg</title>
	<style>
		.s0 { fill: #000000 } 
		.s1 { fill: #ffc500 } 
	</style>
	<path id="Layer 2" class="s0" d="m749.5 1429c-375.8 0-679.5-303.7-679.5-679.5 0-375.8 303.7-679.5 679.5-679.5 375.8 0 679.5 303.7 679.5 679.5 0 375.8-303.7 679.5-679.5 679.5z"/>
	<path fill-rule="evenodd" class="s1" d="m238.4 701.6h55.1 9.5l3.2 9q2.2 6.3 4.4 12.5 2.2 6.3 4.4 12.5 2.2 6.3 4.5 12.5 2.2 6.3 4.4 12.5l17.6-50 3.2-9h81.1l3.1 9.1 14.6 42.9q0.3 1 0.6 2 0.4 0.9 0.7 1.9 0.3 1 0.7 1.9 0.3 1 0.6 2 2.2-6.3 4.4-12.5 2.2-6.3 4.3-12.5 2.2-6.3 4.4-12.5 2.1-6.3 4.3-12.5l3.1-9.1h83.9l-6.1 17.9-66.9 194.7-3.1 9.1h-57.7l-3.2-9.1q-2.5-7.4-5.1-14.8-2.6-7.5-5.1-14.9-2.6-7.4-5.2-14.8-2.5-7.5-5.1-14.9c-2.8-8-5.5-16.1-8.1-23.6l-29.8 81.7-3.2 8.9h-57.2l-3.1-9.1-66-194-6.1-17.8zm115.9 13.5l-30.2 85.6c-0.4 0-30.6-85.6-30.6-85.6h-55.1l66 193.9h38.1l42.9-117.6c-0.1 0.4 40.9 119.1 40.9 119.1h38.6l66.8-194.7h-55.4c0 0-28.6 83-29.6 83.9q0 0 0 0 0 0 0 0 0 0 0 0 0 0 0 0c-1 0-8-18.6-15.9-41.8l-14.6-42.8zm31.1 76.3q0 0 0 0zm897.4-77.1l-0.1 51.1-0.1 13.5-13.4-0.1c-0.6 0-55.3-0.2-82.9-0.2-3.5 0-6.2 0-8.3 0 1.6 2.5 4.2 6.2 7.5 10.4q2 2.4 3.9 4.8 1.9 2.4 3.9 4.8 1.9 2.5 3.8 4.9 2 2.4 3.9 4.8l4.4 5.5c14.7 18.3 18.3 24 20 37.6 2.7 21-6.7 43.2-24.7 57.8l-0.3 0.2c-8.8 7.2-14.6 11.3-32.8 13.1-15.9 1.5-42.5 1.5-95.7 1.5h-4.7c-98.1 0-103.6-1.3-106.9-2-12.2-2.8-25.9-13.6-66.7-52.7q-2-1.9-3.8-3.7l-0.3 45v13.4h-13.5l-60.5-0.3h-13.3l-0.1-13.4-0.3-193.7-0.1-13.5h148.6 0.3c23.1 0.9 45.1 12.4 60.2 31.7 12.9 16.6 18.6 36.2 15.1 52.4-1.5 7.2-5.2 17.1-8.6 22.8-5.5 9.5-17.2 20.5-28.8 27.7 1.3 1 2.4 2 3.2 2.5 5.8 1.1 34.1 1.2 67.6 1.2h9.8 8.1c19 0 37.1 0 44.2-0.9-3.3-4.8-11.9-14.5-17.1-20.4-26.1-26-28.1-41.9-28-56q0-1.1 0-2.2c-0.3-8.6 3-26.9 17.1-41.5 8.6-8.9 24.6-19.6 51.6-19.6h137.8zm-137.8 0c-46.6 0-55.6 35.9-55.2 47.3 0.2 9.5-2.7 22.4 24.4 49.3 21.3 24 23.6 27.9 20.6 34.3-4.3 9.3-1.5 9.7-57.6 9.7h-17.9c-55.7 0-68.4-0.4-72.7-2.2-5.1-2.1-18.7-15.5-18.7-18.4 0-0.8 3.4-2.9 7.5-4.8 11.2-5.1 24.9-17 30.3-26.3 2.7-4.5 5.8-13 7.1-18.8 5.4-25.8-22.1-66.3-62.7-67.8h-134.8l0.3 193.7 60.5 0.2 0.4-75.1q0 0 0.1 0c0.6 0 13 11.3 26.4 24.1 37.3 35.8 51.4 47.4 60.3 49.4 4.9 1.1 39.2 1.6 104 1.6h4.7c106.5 0 105.8-0.1 120.2-11.7 14.3-11.7 22-29.3 19.9-45.6-1.3-10.1-3.2-13.5-17.2-31-5.5-6.8-14.4-18-19.9-24.8-5.4-6.8-10.5-14.3-11.1-16.5-1.4-4.5 1.7-14.8 6.5-15.6 0.3-0.1 6.6-0.1 15.9-0.1 27.9 0 82.9 0.2 82.9 0.2l0.1-51.1zm-269 87.5c0 0 0.3-46.2 0.1-46.4l32.4 0.2c28.1 0.1 33.1 0.5 37 2.8 17.9 10.6 16.9 34.5-1.7 42.6-5.5 2.4-10.8 2.8-36.7 2.8-23 0-31.1-2-31.1-2zm31.1-11.5c23.6 0 28.3-0.4 31.3-1.7 5.3-2.3 6.3-6.2 6.4-8.3 0.3-4-2-7.8-6-10.2-3.2-0.9-19.5-1-30.3-1.1l-18.9-0.1c0 3.1 0 6.5 0 9.9l-0.1 11c4.3 0.3 10.1 0.5 17.6 0.5zm-201.6-81.2l67.8 195.2 6.2 17.8-18.8 0.1-55.3 0.3h-10l-3-9.5-6.2-19.9-78.9-0.7-5.8 19.7-2.9 9.7-10.2-0.1-54.7-0.6-18.7-0.1 6.1-17.7 67-194.1 3.1-9.1h9.6l91.9-0.1h9.6zm-104.7 4.5l-67 194.1 54.8 0.6 8.7-29.4 98.9 0.8 9.2 29.3 55.3-0.2-67.9-195.3zm47.5 28.6c0.1 1.1 31.6 93.7 31.9 94.6-0.1-0.1-6.9-0.1-16.1-0.1-19.6 0-50.2 0.1-50.4 0.2 0.1-0.2 8.7-23.8 17.4-47.4 8.5-23.4 17-46.8 17.2-47.3zm13.1 81c-4.1-12-8.9-26.1-10-29.3l-3.7-10.8-4 11c-4.7 12.8-8.1 22.2-10.6 29.2 6.9-0.1 16.1-0.1 28.3-0.1zm67.7-281h-96.5v147.3h-84.5v-147.4l-99.1 0.3c-0.9 0-1.4 0.1-1.7 0.1-0.1 0.3-0.1 0.6-0.2 0.9 1.7 3.9 12.2 17.3 18.6 25.3 2.3 3 22.7 28.9 25.9 36.2 10.5 24-1.9 59.4-25.9 74.3l-1 0.6c-7.6 4.7-12.7 7.4-28.7 8.6-14 1-37.7 1.1-85.7 1.1h-134.2v-81.1h174.1l1.4-0.9q0.1-0.1 0.1-0.1 0-0.1 0.1-0.1 0 0 0-0.1 0 0 0 0 0-0.1 0-0.1c-2.3-3.3-9.2-11.1-16.5-19.3-25.2-28.3-30.4-36.6-28.8-59.3 1-13.6 7.4-28.4 17.2-39.6 12.1-13.8 28.5-21.4 46.1-21.4l305.8-0.5h13.5zm-319.3-61.2c-30.8 0-48.4 28.7-49.8 48.5-1.3 17.3 1.3 22.3 25.4 49.4 20.3 22.9 20.8 23.7 19.8 29.9-0.7 4.3-2.6 7.5-5.9 9.8l-4.8 3.4h-164.9v54.1h120.7c97.4 0 95.2-0.2 108.3-8.3 18.4-11.4 28.5-39.4 20.7-57.4-1.5-3.3-12.3-18.3-24.1-33.2-18.3-23.1-21.6-28.2-21.6-33.3 0-4.1 1.8-14.9 15.4-14.9l112.6-0.4v147.5h57.5v-147.3h96.5v-48.2zm475.3-3.3l67.7 195.7 6.2 18-19-0.1-55.2-0.3-10-0.1-2.9-9.4-6-19.9-78.6-0.3-5.8 18.7-2.9 9.5h-85.1l6.2-17.9 66.9-193.9 3.2-9.1h112.1zm-105.7 4.4l-66.9 193.9h56.2l8.8-28.2 98.4 0.4 9 29.4 55.2 0.3-67.7-195.8zm48.4 27.5c0.2 0.1 33 96.4 32.8 96.4l-67.1 0.1c-0.7 0 34-96.5 34.3-96.5zm14.1 83q-1.8-5.3-3.6-10.7-1.8-5.3-3.6-10.6-1.8-5.3-3.7-10.7-1.8-5.3-3.6-10.6-1.9 5.3-3.8 10.6-1.9 5.4-3.8 10.7-1.9 5.3-3.8 10.7-1.9 5.3-3.8 10.6zm302.7-122.1c16.5 2.9 31.7 11.9 42.8 25.3 11.3 13.6 14.6 22 16.1 40.4 2.2 27.4-11.1 51.7-36.4 66.8l-2 1.2c0.9 0.8 1.7 1.5 2.3 2l2.1 1.6 100.1 1.5 13 0.1 0.3 13.1 1 53.3 0.3 13.8h-77.9c-57.6 0-68.1-0.7-74.4-2.8-8.2-2.8-20.6-11.8-62.7-51.9l-1.4-1.3 0.1 42.4 0.1 13.6h-89.4v-220.9h83.9c26.7 0 72.9 0.2 82.1 1.8zm-152.5 11.7v193.9h62.4l-0.3-74.1 24.3 23.2c34 32.3 50.8 46.5 57.7 48.9 4.7 1.5 20.5 2 70.1 2h64.1l-1-53.4-104.6-1.5-5.6-4.4c-3.1-2.4-8-7-10.7-10.3-4.3-5-4.7-6.1-2.2-7.2 1.5-0.7 7.8-4.2 13.9-7.9 21-12.5 31.6-31.8 29.8-54.1-1.2-15.8-3.4-21.4-13-32.9-9.1-11.1-21.3-18.3-34.7-20.6-5.9-1-36.2-1.6-79.8-1.6zm61.2 39h30.2c25.8 0 31.1 0.4 36.5 2.8 9.8 4.2 13.6 9.5 14.5 19.5 0.9 9.8-2 16.1-10.2 22.3-4.6 3.4-5.6 3.6-37.9 3.6h-33.1zm13.5 34.6h19.6c14.6 0 26.3 0 29.4-0.6l0.4-0.3c4.8-3.6 5.3-5.5 4.9-10.3-0.4-4.8-1-6-6.4-8.3-2.9-1.3-7.6-1.7-31.2-1.7h-16.7z"/>
	<path id="Starship Info" fill-rule="evenodd" class="s1" d="m411.6 991.1l-9.5 18.6q-7.3-6.1-15.8-6.1-3.8 0-7.1 2.1-3.2 2-3.2 5.6 0 2.4 2 4.4 2 1.9 3.7 2.6 1.9 0.8 4.9 1.7l6.1 1.9q10.8 3.2 16.7 9 6 5.7 6 16.1 0 16.7-9.5 24.8-10.2 8.6-26.1 8.6-17.3 0-32.3-10.5l10.2-19.2q10.9 9.5 21.2 9.5 4.7 0 8.1-2.3 3.5-2.5 3.5-7 0-6.2-11.6-9.6-0.3-0.1-2.9-0.9-6.6-1.8-10.4-3.4-3.7-1.6-7.5-4.4-3.8-2.9-5.4-7.3-1.6-4.4-1.6-10.9 0-13.9 8.9-22.3 8.9-8.5 22.8-8.5 7 0 14.8 2 7.9 2.1 14 5.5zm51.5 42.6h-12.5v44.3h-22.2v-44.3h-7.2v-18.3h7.2v-18.8h22.2v18.8h12.5zm53.3-18.3h22.2v62.6h-22.2v-7h-0.2q-2.8 4.6-7.9 6.9-5.2 2.2-11 2.2-13.7 0-22.7-9.8-8.9-9.9-8.9-23.7 0-13.7 8.8-23.5 8.9-9.8 22.5-9.8 12.5 0 19.4 8.2zm-3.1 21.4q-3.8-4.2-10.4-4.2-6.6 0-10.5 4.2-3.8 4-3.8 10 0 6.1 3.8 10.1 3.9 3.9 10.5 3.9 6.6 0 10.4-3.9 3.9-4 3.9-10.1 0-6-3.9-10zm40.1-21.4h22.2v10.3h0.3q6.2-11.1 20.2-11.1h4.3v21.3q-3.7-2.1-9.4-2.1-8.7 0-12.1 5-3.3 4.9-3.3 13.9v25.3h-22.2zm104.1 2l-7.5 14.1q-5.7-3-11.9-3-2.5 0-4.8 1.1-2.2 1.1-2.2 3.1 0 0.9 0.4 1.6 0.3 0.7 1.1 1.4 0.7 0.4 1.4 0.8 0.8 0.4 1.9 0.7 1.2 0.3 1.8 0.4 0.7 0.1 1.8 0.4 1.3 0.1 1.6 0.2 18.2 3.7 18.2 18.6 0 11.4-8.8 17.4-8.6 5.9-20.7 5.9-13.6 0-25.3-7.2l8.1-15.5q3.6 2.5 8.6 4.5 5 1.8 8.9 1.8 2.6 0 4.8-1.2 2.2-1.2 2.2-3.5 0-1.4-0.7-2.4-0.6-1.1-2.2-1.7-1.6-0.7-3.1-1.1-1.3-0.3-3.9-0.8-2.5-0.6-4-1-6.4-1.7-10.1-5.2-3.8-3.7-3.8-11.3 0-7.3 4.1-12.4 4.2-5.3 10.2-7.5 6.1-2.3 13.3-2.3 11.7 0 20.6 4.1zm13.8 60.6v-101.3h22.2v46.6h0.2q7.6-10 20-10 11.6 0 17.6 7.1 6 7.1 6 19.3v38.3h-22.2v-32.1q0-6.8-2.1-10.9-2-4-8-4-6.1 0-8.9 4.3-2.6 4.3-2.6 10.6v32.1zm80.6-62.6h22.2v62.6h-22.2zm2.3-32.8q3.7-3.7 8.8-3.7 5.1 0 8.8 3.7 3.6 3.6 3.6 8.8 0 5.1-3.6 8.7-3.7 3.7-8.8 3.7-5.1 0-8.8-3.7-3.6-3.6-3.6-8.7 0-5.2 3.6-8.8zm33.8 32.8h22.2v7.1h0.3q2.9-4.6 8-6.9 5.1-2.3 10.9-2.3 13.6 0 22.5 9.9 9.1 9.9 9.1 23.7 0 13.7-8.9 23.5-8.8 9.6-22.5 9.6-12.4 0-19.4-8v37.2h-22.2zm46.1 21.4q-3.8-4.2-10.3-4.2-6.6 0-10.5 4.2-3.8 4-3.8 10 0 6.1 3.8 10.1 3.9 3.9 10.5 3.9 6.5 0 10.3-3.9 3.9-4 3.9-10.1 0-6-3.9-10zm80.2-50.8h23.9v92h-23.9zm39 29.4h22.2v8h0.3q6.8-10.1 20-10.1 12.1 0 17.8 7 5.7 6.8 5.7 19v38.7h-22.2c0-0.2 0-31.3 0-32.4q0-1.7 0-2.1 0-0.7-0.1-2.1 0-1.6-0.2-2.3-0.2-0.8-0.5-2.1-0.4-1.4-0.9-2-0.5-0.6-1.3-1.4-0.8-1-1.7-1.4-1-0.5-2.4-0.8-1.3-0.4-2.9-0.4-11.6 0-11.6 14.5v32.5h-22.2zm120.6 18.3h-15.5v44.3h-22.2v-44.3h-7.8v-18.3h7.8v-8q0-7.8 1.1-12.4 1.1-4.8 5.2-9.5 8.5-10 21.8-10 5.3 0 9.6 2.2v19.1q-4.9-2-7.8-2-4.2 0-6 2.5-1.7 2.5-1.7 8v10.1h15.5zm13.6-11.4q11-9 26.9-9 15.8 0 26.7 9 11 9.1 11 24.4 0 15.4-11 24.4-10.9 8.9-26.7 8.9-15.8 0-26.8-8.9-10.9-9-10.9-24.4 0-15.3 10.8-24.4zm37.2 14.4q-3.7-4.1-10.3-4.1-6.6 0-10.5 4.1-3.8 4.1-3.8 10 0 6.1 3.8 10.2 3.9 3.9 10.5 3.9 6.6 0 10.3-3.9 3.9-4.1 3.9-10.2 0-5.9-3.9-10z"/>
</svg>